<?xml version="1.0" standalone="no"?>
<!DOCTYPE svg PUBLIC "-//W3C//DTD SVG 20010904//EN"
 "http://www.w3.org/TR/2001/REC-SVG-20010904/DTD/svg10.dtd">
<svg version="1.0" xmlns="http://www.w3.org/2000/svg"
 width="225.000000pt" height="225.000000pt" viewBox="0 0 225.000000 225.000000"
 preserveAspectRatio="xMidYMid meet">

<g transform="translate(0.000000,225.000000) scale(0.100000,-0.100000)"
fill="grey" stroke="none">
<path d="M735 1866 c-449 -87 -687 -427 -517 -739 35 -66 108 -145 176 -192
l55 -38 -19 -36 c-10 -20 -43 -65 -74 -101 -59 -69 -67 -93 -37 -109 40 -22
286 61 379 128 26 18 35 19 108 9 178 -23 377 12 543 94 281 139 395 399 279
638 -48 100 -158 203 -278 262 -138 68 -226 89 -400 93 -97 3 -168 0 -215 -9z"/>
<path d="M1801 1453 c13 -59 10 -202 -6 -263 -35 -132 -149 -284 -278 -372
-166 -113 -426 -186 -622 -176 -36 1 -65 2 -65 1 0 -7 134 -69 192 -89 107
-36 203 -47 359 -42 l142 5 82 -44 c141 -74 299 -119 330 -93 24 20 18 35 -39
102 -29 35 -63 81 -74 103 l-20 41 46 29 c70 44 155 137 191 208 80 159 60
327 -58 475 -36 46 -163 151 -182 152 -4 0 -3 -17 2 -37z"/>
</g>
</svg>
