<svg xmlns="http://www.w3.org/2000/svg" x="0px" y="0px" width="50" height="50" viewBox="0 0 172 172" style="fill:#000000;width: 20px;height: 25px;vertical-align: middle;">
    <g transform="">
       <g fill="none" fill-rule="nonzero" stroke="transparent" stroke-width="1" stroke-linecap="butt" stroke-linejoin="miter" stroke-miterlimit="10" stroke-dasharray="" stroke-dashoffset="0" font-family="none" font-weight="none" font-size="none" text-anchor="none" style="mix-blend-mode: normal">
          <path d="M0,172v-172h172v172z" fill="none"></path>
          <path d="" fill="none"></path>
          <path d="" fill="none"></path>
          <g fill="#ffffff">
             <path d="M34.4,13.76c-0.91375,0 -1.8275,0.3225 -2.4725,0.9675l-12.685,12.7925h49.5575c1.89469,0 3.44,1.54531 3.44,3.44c0,7.71313 6.04688,13.76 13.76,13.76c7.71313,0 13.76,-6.04687 13.76,-13.76c0,-1.89469 1.53188,-3.44 3.44,-3.44h49.5575l-12.685,-12.7925c-0.645,-0.645 -1.55875,-0.9675 -2.4725,-0.9675zM17.2,34.4v120.4c0,1.90813 1.54531,3.44 3.44,3.44h130.72c1.90813,0 3.44,-1.53187 3.44,-3.44v-120.4h-48.4825c-1.59906,9.87656 -9.91687,17.2 -20.3175,17.2c-10.40062,0 -18.73187,-7.32344 -20.3175,-17.2zM86,68.8c17.10594,0 30.96,13.85406 30.96,30.96c0,17.10594 -13.85406,30.96 -30.96,30.96c-17.10594,0 -30.96,-13.85406 -30.96,-30.96c0,-17.10594 13.85406,-30.96 30.96,-30.96zM82.56,79.12v18.92l-12.3625,9.245l4.085,5.59l13.76,-10.32l1.3975,-1.075v-22.36z"></path>
          </g>
       </g>
    </g>
 </svg>