<?xml version="1.0" standalone="no"?>
<!DOCTYPE svg PUBLIC "-//W3C//DTD SVG 20010904//EN"
 "http://www.w3.org/TR/2001/REC-SVG-20010904/DTD/svg10.dtd">
<svg version="1.0" xmlns="http://www.w3.org/2000/svg"
 width="980.000000pt" height="980.000000pt" viewBox="0 0 980.000000 980.000000"
 preserveAspectRatio="xMidYMid meet">

<g transform="translate(0.000000,980.000000) scale(0.100000,-0.100000)"
fill="grey" stroke="none">
<path d="M4120 9794 c-814 -53 -1523 -524 -1880 -1249 -169 -343 -240 -676
-227 -1060 12 -351 85 -635 241 -941 223 -439 568 -778 1011 -995 295 -144
576 -214 905 -226 627 -22 1216 211 1660 657 427 428 651 971 652 1575 0 267
-30 457 -112 708 -263 801 -975 1397 -1805 1511 -115 15 -350 26 -445 20z"/>
<path d="M7512 5356 c-136 -33 -275 -141 -339 -261 -68 -131 -66 -109 -71
-757 l-4 -587 -596 -3 -597 -3 -65 -25 c-183 -72 -306 -214 -345 -397 -18 -86
-18 -130 0 -218 42 -199 201 -364 396 -410 53 -12 161 -15 636 -15 l571 0 4
-588 c4 -531 6 -592 22 -642 63 -191 191 -319 375 -374 68 -20 207 -21 280 -1
172 45 315 181 373 354 22 65 23 78 26 659 l3 592 577 0 c480 0 588 3 635 15
232 60 407 281 407 514 0 254 -190 486 -434 530 -38 7 -264 11 -622 11 l-563
0 -3 593 -3 592 -26 71 c-83 226 -280 365 -514 363 -38 0 -94 -6 -123 -13z"/>
<path d="M4040 4934 c-445 -30 -791 -96 -1162 -223 -362 -124 -652 -267 -983
-487 -272 -180 -500 -373 -741 -625 -572 -601 -967 -1399 -1099 -2223 -42
-266 -48 -353 -52 -868 l-5 -508 4246 0 4246 0 0 463 c0 594 -17 788 -102
1167 l-33 145 -7 -125 c-13 -244 -66 -379 -208 -521 -53 -53 -110 -100 -150
-122 -286 -157 -617 -111 -846 117 -80 81 -133 165 -172 275 l-27 76 -3 518
-3 517 -520 0 c-578 0 -612 3 -745 65 -183 84 -317 236 -381 430 -33 103 -38
282 -10 385 55 199 190 365 371 454 144 71 131 70 739 74 l547 3 0 29 c0 25
-17 41 -132 128 -631 475 -1342 755 -2125 837 -143 15 -531 27 -643 19z"/>
</g>
</svg>
