<svg id="svg" version="1.1" xmlns="http://www.w3.org/2000/svg" xmlns:xlink="http://www.w3.org/1999/xlink" width="400" height="357.1428571428571" viewBox="0, 0, 400,357.1428571428571"><g id="svgg"><path id="path0" d="M33.750 19.631 C 17.413 19.860,16.359 20.154,12.691 25.502 C 6.744 34.174,10.167 43.433,20.714 47.198 L 23.036 48.026 46.893 48.143 L 70.749 48.260 71.094 49.168 C 71.604 50.507,72.301 53.587,75.365 68.036 C 76.157 71.768,77.111 76.188,77.487 77.857 C 77.862 79.527,78.829 84.027,79.636 87.857 C 80.442 91.688,81.410 96.188,81.786 97.857 C 82.162 99.527,83.128 104.027,83.933 107.857 C 84.739 111.688,85.703 116.188,86.076 117.857 C 86.449 119.527,87.414 124.027,88.219 127.857 C 89.024 131.688,89.989 136.188,90.362 137.857 C 90.735 139.527,91.699 144.027,92.505 147.857 C 93.310 151.688,94.274 156.188,94.648 157.857 C 95.463 161.507,97.938 173.168,99.156 179.107 C 99.640 181.464,100.189 183.978,100.377 184.692 C 100.680 185.844,101.814 191.138,103.925 201.250 C 104.294 203.018,105.255 207.518,106.062 211.250 C 106.868 214.982,107.827 219.482,108.192 221.250 C 108.557 223.018,109.273 226.393,109.782 228.750 C 111.059 234.658,110.885 237.744,109.087 241.071 C 108.290 242.545,101.860 255.883,100.873 258.109 C 98.127 264.303,98.036 264.634,98.036 268.393 C 98.036 277.161,104.243 282.143,115.168 282.143 C 119.758 282.143,119.935 282.351,116.696 283.951 C 101.059 291.676,94.360 305.524,99.172 320.179 C 108.342 348.108,148.673 346.237,155.008 317.588 C 158.128 303.480,151.703 291.708,136.835 284.289 C 135.224 283.485,134.000 282.673,134.116 282.485 C 134.418 281.997,324.524 282.019,324.826 282.507 C 324.950 282.708,324.437 283.122,323.686 283.428 C 304.911 291.074,297.485 308.318,305.926 324.668 C 318.026 348.105,352.822 344.253,359.688 318.718 C 363.505 304.521,357.221 292.628,341.441 284.190 C 337.215 281.930,337.281 281.866,344.008 281.727 C 350.809 281.587,353.086 280.809,356.405 277.489 C 364.363 269.532,360.038 255.678,348.939 253.573 C 347.696 253.338,310.714 253.214,241.401 253.214 C 183.296 253.214,135.672 253.077,135.568 252.909 C 135.464 252.742,135.884 251.818,136.500 250.856 C 141.258 243.435,141.901 234.351,138.391 224.163 C 137.719 222.214,137.649 222.250,143.399 221.614 C 146.146 221.310,148.634 220.991,148.929 220.907 C 149.223 220.822,151.393 220.579,153.750 220.368 C 156.107 220.157,159.080 219.824,160.357 219.628 C 161.634 219.432,167.580 218.714,173.571 218.033 C 179.563 217.352,186.634 216.548,189.286 216.247 C 191.938 215.945,195.875 215.462,198.036 215.174 C 200.196 214.886,206.312 214.168,211.626 213.580 C 216.940 212.992,221.761 212.423,222.340 212.315 C 222.919 212.208,225.643 211.890,228.393 211.609 C 231.143 211.327,236.688 210.697,240.714 210.208 C 252.597 208.765,257.336 208.204,263.571 207.506 C 269.137 206.882,277.153 205.945,291.429 204.249 C 294.866 203.840,299.688 203.289,302.143 203.024 C 304.598 202.758,309.339 202.211,312.679 201.807 C 316.018 201.404,320.839 200.834,323.393 200.541 C 335.035 199.206,343.750 198.191,347.857 197.692 C 354.384 196.900,366.974 195.423,372.365 194.817 C 383.721 193.541,387.916 190.471,389.482 182.288 C 390.382 177.584,390.235 64.932,389.323 60.514 C 387.996 54.085,385.227 51.037,379.208 49.379 C 377.104 48.800,368.358 48.749,238.937 48.577 L 100.910 48.393 100.649 47.500 C 100.505 47.009,99.796 44.036,99.073 40.893 C 95.704 26.249,94.036 22.839,89.183 20.675 C 86.405 19.436,69.839 19.124,33.750 19.631 " stroke="#ffffff" fill="#ffffff" fill-rule="evenodd"></path><path id="path1" d="M0.000 178.571 L 0.000 357.143 200.000 357.143 L 400.000 357.143 400.000 178.571 L 400.000 0.000 200.000 0.000 L 0.000 0.000 0.000 178.571 M89.187 20.134 C 94.815 22.733,95.896 25.100,100.624 45.179 L 101.297 48.036 239.666 48.220 C 364.514 48.386,378.210 48.459,379.821 48.969 C 385.665 50.817,388.783 54.352,389.851 60.339 C 390.580 64.424,390.572 179.820,389.843 183.261 C 388.241 190.819,383.499 194.119,372.500 195.331 C 370.634 195.537,365.652 196.118,361.429 196.621 C 353.264 197.596,348.101 198.193,332.679 199.949 C 327.375 200.553,320.464 201.374,317.321 201.773 C 314.179 202.173,310.161 202.650,308.393 202.834 C 304.253 203.264,287.953 205.143,280.357 206.066 C 277.116 206.460,272.938 206.940,271.071 207.132 C 269.205 207.325,265.027 207.809,261.786 208.208 C 258.545 208.607,253.643 209.179,250.893 209.479 C 248.143 209.779,245.009 210.174,243.929 210.357 C 242.848 210.540,239.875 210.862,237.321 211.073 C 234.768 211.284,231.955 211.601,231.071 211.776 C 230.188 211.951,224.964 212.593,219.464 213.203 C 213.964 213.813,208.580 214.460,207.500 214.642 C 206.420 214.824,203.527 215.146,201.071 215.357 C 198.616 215.569,195.723 215.891,194.643 216.072 C 193.563 216.254,190.429 216.660,187.679 216.974 C 184.929 217.288,179.946 217.857,176.607 218.239 C 173.268 218.620,168.286 219.170,165.536 219.460 C 162.786 219.750,159.571 220.157,158.393 220.364 C 157.214 220.571,153.920 220.972,151.071 221.255 C 139.367 222.419,138.502 222.568,138.754 223.377 C 142.336 234.902,141.695 244.076,136.806 251.250 C 136.405 251.839,136.075 252.440,136.074 252.586 C 136.072 252.731,184.249 252.892,243.133 252.943 L 350.194 253.036 352.535 254.188 C 367.541 261.576,361.909 281.742,344.638 282.469 L 339.647 282.679 341.699 283.747 C 355.315 290.837,361.497 299.994,360.967 312.289 C 359.690 341.883,321.046 351.610,306.084 326.103 C 297.205 310.966,303.349 292.602,319.962 284.622 C 321.751 283.763,323.214 282.934,323.214 282.780 C 323.214 282.626,281.027 282.500,229.464 282.500 C 177.902 282.500,135.715 282.621,135.715 282.768 C 135.716 282.915,137.122 283.817,138.840 284.771 C 154.926 293.709,160.532 308.797,153.377 323.897 C 140.885 350.263,101.701 344.235,97.470 315.297 C 95.610 302.577,101.346 292.136,114.306 284.648 L 118.024 282.500 114.101 282.491 C 104.740 282.470,98.898 278.289,97.480 270.596 C 96.682 266.266,97.650 263.386,104.869 248.618 C 109.781 238.571,110.667 235.921,110.107 232.954 C 108.959 226.875,108.243 223.335,108.063 222.857 C 107.885 222.383,106.551 216.248,104.648 207.143 C 104.299 205.473,103.336 200.973,102.509 197.143 C 101.682 193.313,100.707 188.732,100.343 186.964 C 98.174 176.448,97.122 171.544,96.933 171.071 C 96.815 170.777,96.431 169.009,96.079 167.143 C 95.727 165.277,94.942 161.500,94.336 158.750 C 93.730 156.000,92.900 152.143,92.492 150.179 C 92.084 148.214,91.365 144.920,90.893 142.857 C 90.421 140.795,89.691 137.420,89.272 135.357 C 88.852 133.295,88.128 129.839,87.663 127.679 C 86.199 120.874,84.713 113.925,83.616 108.750 C 83.033 106.000,82.153 101.902,81.661 99.643 C 81.168 97.384,80.181 92.804,79.467 89.464 C 77.591 80.689,76.958 77.752,75.352 70.357 C 74.562 66.723,73.345 61.051,72.645 57.752 C 71.946 54.454,71.179 51.079,70.939 50.252 L 70.505 48.750 46.413 48.569 C 19.973 48.371,21.614 48.506,16.977 46.163 C 8.189 41.723,6.679 30.657,13.856 23.289 C 18.233 18.795,16.743 18.950,54.643 19.035 L 86.964 19.107 89.187 20.134 " stroke="#000" fill="#000" fill-rule="evenodd"></path><path id="path2" d="M37.768 19.196 C 46.460 19.250,60.683 19.250,69.375 19.196 C 78.067 19.143,70.955 19.100,53.571 19.100 C 36.188 19.100,29.076 19.143,37.768 19.196 M87.321 19.814 C 88.304 20.078,89.156 20.246,89.215 20.188 C 89.412 19.995,87.047 19.285,86.286 19.310 C 85.873 19.323,86.339 19.550,87.321 19.814 M16.016 21.421 C 15.133 22.006,14.101 22.837,13.723 23.268 C 13.345 23.699,13.858 23.421,14.863 22.651 C 15.868 21.880,16.993 21.059,17.363 20.825 C 17.733 20.591,17.943 20.390,17.829 20.378 C 17.715 20.367,16.900 20.836,16.016 21.421 M91.504 21.763 C 92.232 22.380,93.317 23.478,93.914 24.203 C 94.511 24.927,95.000 25.396,95.000 25.245 C 95.000 24.813,91.719 21.415,90.908 21.007 C 90.507 20.805,90.775 21.145,91.504 21.763 M12.431 24.911 C 11.802 25.643,11.330 26.429,11.519 26.429 C 11.592 26.429,12.008 25.946,12.444 25.357 C 13.304 24.193,13.296 23.903,12.431 24.911 M9.515 31.504 C 9.394 31.953,9.318 33.286,9.344 34.464 C 9.392 36.556,9.400 36.538,9.643 33.750 C 9.906 30.733,9.874 30.162,9.515 31.504 M97.204 31.964 C 97.198 32.357,97.331 33.000,97.500 33.393 C 97.891 34.303,97.891 33.364,97.500 32.143 C 97.270 31.425,97.212 31.390,97.204 31.964 M12.089 42.425 C 12.530 43.044,13.075 43.664,13.301 43.804 C 13.527 43.943,13.351 43.551,12.911 42.932 C 12.470 42.314,11.925 41.693,11.699 41.553 C 11.473 41.414,11.649 41.806,12.089 42.425 M14.256 44.416 C 14.732 45.001,16.071 45.887,16.071 45.615 C 16.071 45.547,15.549 45.109,14.911 44.642 C 14.192 44.116,13.943 44.030,14.256 44.416 M25.446 48.474 C 26.183 48.552,27.388 48.552,28.125 48.474 C 28.862 48.397,28.259 48.334,26.786 48.334 C 25.313 48.334,24.710 48.397,25.446 48.474 M170.089 48.482 C 207.754 48.532,269.388 48.532,307.054 48.482 C 344.719 48.432,313.902 48.391,238.571 48.391 C 163.241 48.391,132.424 48.432,170.089 48.482 M388.628 56.607 C 388.627 56.804,388.842 57.527,389.107 58.214 C 389.372 58.902,389.593 59.223,389.600 58.929 C 389.606 58.634,389.390 57.911,389.120 57.321 C 388.850 56.732,388.629 56.411,388.628 56.607 M73.285 60.893 C 73.285 61.286,73.414 62.009,73.571 62.500 C 73.798 63.207,73.857 63.244,73.857 62.679 C 73.857 62.286,73.729 61.563,73.571 61.071 C 73.345 60.364,73.285 60.327,73.285 60.893 M390.174 121.964 C 390.174 154.768,390.216 168.135,390.268 151.668 C 390.319 135.202,390.319 108.363,390.268 92.025 C 390.216 75.688,390.174 89.161,390.174 121.964 M76.489 75.536 C 76.483 75.929,76.617 76.571,76.786 76.964 C 77.177 77.874,77.177 76.935,76.786 75.714 C 76.556 74.997,76.498 74.962,76.489 75.536 M86.434 122.351 C 86.437 122.728,86.603 123.277,86.802 123.571 C 87.067 123.963,87.100 123.818,86.925 123.036 C 86.631 121.723,86.427 121.437,86.434 122.351 M89.357 135.536 C 89.357 135.929,89.486 136.652,89.643 137.143 C 89.869 137.850,89.929 137.887,89.929 137.321 C 89.929 136.929,89.800 136.205,89.643 135.714 C 89.416 135.007,89.357 134.970,89.357 135.536 M90.428 140.536 C 90.428 140.929,90.557 141.652,90.714 142.143 C 90.941 142.850,91.000 142.887,91.000 142.321 C 91.000 141.929,90.872 141.205,90.714 140.714 C 90.488 140.007,90.428 139.970,90.428 140.536 M93.643 155.536 C 93.643 155.929,93.771 156.652,93.929 157.143 C 94.155 157.850,94.215 157.887,94.215 157.321 C 94.215 156.929,94.086 156.205,93.929 155.714 C 93.702 155.007,93.643 154.970,93.643 155.536 M96.303 168.214 C 96.422 169.098,96.657 170.143,96.825 170.536 C 97.196 171.401,96.820 168.833,96.380 167.500 C 96.187 166.912,96.160 167.157,96.303 168.214 M99.291 182.351 C 99.294 182.728,99.460 183.277,99.659 183.571 C 99.924 183.963,99.957 183.818,99.782 183.036 C 99.488 181.723,99.284 181.437,99.291 182.351 M386.818 189.336 C 386.148 190.143,384.871 191.265,383.980 191.830 C 383.089 192.395,382.517 192.857,382.708 192.857 C 383.522 192.857,387.203 189.754,387.898 188.482 C 388.425 187.517,388.144 187.739,386.818 189.336 M100.775 189.107 C 100.769 189.500,100.903 190.143,101.071 190.536 C 101.463 191.446,101.463 190.507,101.071 189.286 C 100.842 188.568,100.783 188.533,100.775 189.107 M374.732 194.889 C 375.076 194.979,375.638 194.979,375.982 194.889 C 376.326 194.799,376.045 194.726,375.357 194.726 C 374.670 194.726,374.388 194.799,374.732 194.889 M372.232 195.246 C 372.576 195.336,373.138 195.336,373.482 195.246 C 373.826 195.156,373.545 195.083,372.857 195.083 C 372.170 195.083,371.888 195.156,372.232 195.246 M365.804 195.960 C 366.147 196.050,366.710 196.050,367.054 195.960 C 367.397 195.871,367.116 195.797,366.429 195.797 C 365.741 195.797,365.460 195.871,365.804 195.960 M362.772 196.324 C 363.216 196.409,363.859 196.406,364.201 196.317 C 364.542 196.227,364.179 196.158,363.393 196.161 C 362.607 196.165,362.328 196.239,362.772 196.324 M351.786 197.500 L 350.179 197.750 351.607 197.761 C 352.393 197.768,353.518 197.650,354.107 197.500 C 355.536 197.136,354.124 197.136,351.786 197.500 M347.946 198.103 C 348.290 198.193,348.853 198.193,349.196 198.103 C 349.540 198.013,349.259 197.940,348.571 197.940 C 347.884 197.940,347.603 198.013,347.946 198.103 M339.286 198.929 C 337.813 199.158,337.783 199.181,338.929 199.211 C 339.616 199.230,340.821 199.112,341.607 198.949 C 343.451 198.568,341.707 198.552,339.286 198.929 M335.804 199.532 C 336.147 199.622,336.710 199.622,337.054 199.532 C 337.397 199.442,337.116 199.369,336.429 199.369 C 335.741 199.369,335.460 199.442,335.804 199.532 M332.589 199.889 C 332.933 199.979,333.496 199.979,333.839 199.889 C 334.183 199.799,333.902 199.726,333.214 199.726 C 332.527 199.726,332.246 199.799,332.589 199.889 M329.201 200.253 C 329.645 200.338,330.288 200.335,330.629 200.245 C 330.971 200.156,330.607 200.086,329.821 200.090 C 329.036 200.094,328.756 200.167,329.201 200.253 M326.518 200.603 C 326.862 200.693,327.424 200.693,327.768 200.603 C 328.112 200.513,327.830 200.440,327.143 200.440 C 326.455 200.440,326.174 200.513,326.518 200.603 M103.632 202.321 C 103.626 202.714,103.760 203.357,103.929 203.750 C 104.320 204.660,104.320 203.721,103.929 202.500 C 103.699 201.782,103.641 201.747,103.632 202.321 M311.339 202.395 C 311.781 202.480,312.504 202.480,312.946 202.395 C 313.388 202.310,313.027 202.240,312.143 202.240 C 311.259 202.240,310.897 202.310,311.339 202.395 M307.946 202.746 C 308.290 202.836,308.853 202.836,309.196 202.746 C 309.540 202.656,309.259 202.583,308.571 202.583 C 307.884 202.583,307.603 202.656,307.946 202.746 M304.375 203.103 C 304.719 203.193,305.281 203.193,305.625 203.103 C 305.969 203.013,305.688 202.940,305.000 202.940 C 304.313 202.940,304.031 203.013,304.375 203.103 M301.701 203.467 C 302.145 203.552,302.788 203.549,303.129 203.460 C 303.471 203.370,303.107 203.300,302.321 203.304 C 301.536 203.308,301.256 203.381,301.701 203.467 M298.661 203.818 C 299.004 203.907,299.567 203.907,299.911 203.818 C 300.254 203.728,299.973 203.654,299.286 203.654 C 298.598 203.654,298.317 203.728,298.661 203.818 M295.446 204.175 C 295.790 204.265,296.353 204.265,296.696 204.175 C 297.040 204.085,296.759 204.011,296.071 204.011 C 295.384 204.011,295.103 204.085,295.446 204.175 M292.415 204.538 C 292.859 204.624,293.502 204.620,293.843 204.531 C 294.185 204.442,293.821 204.372,293.036 204.376 C 292.250 204.380,291.971 204.453,292.415 204.538 M289.558 204.895 C 290.002 204.981,290.645 204.978,290.986 204.888 C 291.328 204.799,290.964 204.729,290.179 204.733 C 289.393 204.737,289.113 204.810,289.558 204.895 M277.058 206.324 C 277.502 206.409,278.145 206.406,278.486 206.317 C 278.828 206.227,278.464 206.158,277.679 206.161 C 276.893 206.165,276.613 206.239,277.058 206.324 M274.375 206.675 C 274.719 206.765,275.281 206.765,275.625 206.675 C 275.969 206.585,275.688 206.511,275.000 206.511 C 274.313 206.511,274.031 206.585,274.375 206.675 M104.874 208.214 C 104.994 209.098,105.229 210.143,105.397 210.536 C 105.767 211.401,105.391 208.833,104.952 207.500 C 104.758 206.912,104.732 207.157,104.874 208.214 M264.732 207.746 C 265.076 207.836,265.638 207.836,265.982 207.746 C 266.326 207.656,266.045 207.583,265.357 207.583 C 264.670 207.583,264.388 207.656,264.732 207.746 M261.875 208.103 C 262.219 208.193,262.781 208.193,263.125 208.103 C 263.469 208.013,263.188 207.940,262.500 207.940 C 261.813 207.940,261.531 208.013,261.875 208.103 M258.661 208.460 C 259.004 208.550,259.567 208.550,259.911 208.460 C 260.254 208.371,259.973 208.297,259.286 208.297 C 258.598 208.297,258.317 208.371,258.661 208.460 M255.446 208.818 C 255.790 208.907,256.353 208.907,256.696 208.818 C 257.040 208.728,256.759 208.654,256.071 208.654 C 255.384 208.654,255.103 208.728,255.446 208.818 M252.411 209.181 C 252.853 209.266,253.576 209.266,254.018 209.181 C 254.460 209.095,254.098 209.026,253.214 209.026 C 252.330 209.026,251.969 209.095,252.411 209.181 M240.986 210.610 C 241.431 210.695,242.073 210.692,242.415 210.603 C 242.756 210.513,242.393 210.443,241.607 210.447 C 240.821 210.451,240.542 210.524,240.986 210.610 M237.772 210.967 C 238.216 211.052,238.859 211.049,239.201 210.960 C 239.542 210.870,239.179 210.800,238.393 210.804 C 237.607 210.808,237.328 210.881,237.772 210.967 M228.304 212.032 C 228.647 212.122,229.210 212.122,229.554 212.032 C 229.897 211.942,229.616 211.869,228.929 211.869 C 228.241 211.869,227.960 211.942,228.304 212.032 M225.629 212.395 C 226.073 212.481,226.716 212.478,227.058 212.388 C 227.399 212.299,227.036 212.229,226.250 212.233 C 225.464 212.237,225.185 212.310,225.629 212.395 M222.415 212.753 C 222.859 212.838,223.502 212.835,223.843 212.745 C 224.185 212.656,223.821 212.586,223.036 212.590 C 222.250 212.594,221.971 212.667,222.415 212.753 M219.201 213.110 C 219.645 213.195,220.288 213.192,220.629 213.103 C 220.971 213.013,220.607 212.943,219.821 212.947 C 219.036 212.951,218.756 213.024,219.201 213.110 M215.986 213.467 C 216.431 213.552,217.073 213.549,217.415 213.460 C 217.756 213.370,217.393 213.300,216.607 213.304 C 215.821 213.308,215.542 213.381,215.986 213.467 M204.196 214.895 C 204.638 214.980,205.362 214.980,205.804 214.895 C 206.246 214.810,205.884 214.740,205.000 214.740 C 204.116 214.740,203.754 214.810,204.196 214.895 M201.343 215.253 C 201.788 215.338,202.431 215.335,202.772 215.245 C 203.113 215.156,202.750 215.086,201.964 215.090 C 201.179 215.094,200.899 215.167,201.343 215.253 M191.701 216.324 C 192.145 216.409,192.788 216.406,193.129 216.317 C 193.471 216.227,193.107 216.158,192.321 216.161 C 191.536 216.165,191.256 216.239,191.701 216.324 M189.018 216.675 C 189.362 216.765,189.924 216.765,190.268 216.675 C 190.612 216.585,190.330 216.511,189.643 216.511 C 188.955 216.511,188.674 216.585,189.018 216.675 M185.986 217.038 C 186.431 217.124,187.073 217.120,187.415 217.031 C 187.756 216.942,187.393 216.872,186.607 216.876 C 185.821 216.880,185.542 216.953,185.986 217.038 M180.357 217.500 C 178.896 217.727,178.864 217.752,180.000 217.777 C 180.688 217.792,181.973 217.676,182.857 217.518 C 184.998 217.137,182.793 217.121,180.357 217.500 M167.415 219.181 C 167.859 219.267,168.502 219.263,168.843 219.174 C 169.185 219.085,168.821 219.015,168.036 219.019 C 167.250 219.023,166.971 219.096,167.415 219.181 M155.629 220.610 C 156.073 220.695,156.716 220.692,157.058 220.603 C 157.399 220.513,157.036 220.443,156.250 220.447 C 155.464 220.451,155.185 220.524,155.629 220.610 M152.411 220.966 C 152.853 221.051,153.576 221.051,154.018 220.966 C 154.460 220.881,154.098 220.812,153.214 220.812 C 152.330 220.812,151.969 220.881,152.411 220.966 M149.018 221.318 C 149.362 221.407,149.924 221.407,150.268 221.318 C 150.612 221.228,150.330 221.154,149.643 221.154 C 148.955 221.154,148.674 221.228,149.018 221.318 M142.772 222.038 C 143.216 222.124,143.859 222.120,144.201 222.031 C 144.542 221.942,144.179 221.872,143.393 221.876 C 142.607 221.880,142.328 221.953,142.772 222.038 M109.346 229.107 C 109.341 229.500,109.474 230.143,109.643 230.536 C 110.034 231.446,110.034 230.507,109.643 229.286 C 109.413 228.568,109.355 228.533,109.346 229.107 M140.797 233.214 C 140.797 233.902,140.871 234.183,140.960 233.839 C 141.050 233.496,141.050 232.933,140.960 232.589 C 140.871 232.246,140.797 232.527,140.797 233.214 M140.797 240.000 C 140.797 240.688,140.871 240.969,140.960 240.625 C 141.050 240.281,141.050 239.719,140.960 239.375 C 140.871 239.031,140.797 239.313,140.797 240.000 M140.223 242.545 C 139.925 244.033,140.214 244.322,140.536 242.857 C 140.671 242.240,140.708 241.660,140.617 241.569 C 140.526 241.478,140.349 241.917,140.223 242.545 M106.671 244.838 C 105.832 246.597,105.950 246.897,106.827 245.234 C 107.226 244.479,107.488 243.798,107.411 243.721 C 107.334 243.644,107.001 244.146,106.671 244.838 M138.987 246.622 C 138.388 247.936,138.502 248.216,139.149 247.022 C 139.452 246.464,139.632 245.941,139.550 245.860 C 139.469 245.778,139.215 246.121,138.987 246.622 M104.804 248.605 C 104.490 249.212,104.296 249.773,104.374 249.850 C 104.451 249.928,104.782 249.431,105.109 248.746 C 105.843 247.205,105.589 247.088,104.804 248.605 M350.714 253.750 C 352.345 254.378,352.986 254.369,351.607 253.737 C 351.018 253.467,350.295 253.251,350.000 253.258 C 349.705 253.264,350.027 253.485,350.714 253.750 M355.330 256.189 C 356.240 257.191,356.436 257.315,356.417 256.875 C 356.411 256.728,355.969 256.299,355.435 255.922 L 354.464 255.236 355.330 256.189 M98.076 263.437 C 97.759 264.367,97.512 265.300,97.526 265.510 C 97.540 265.721,97.861 265.022,98.239 263.957 C 98.617 262.893,98.865 261.960,98.789 261.884 C 98.714 261.809,98.393 262.508,98.076 263.437 M97.233 268.393 C 97.237 269.179,97.310 269.458,97.395 269.014 C 97.481 268.569,97.478 267.927,97.388 267.585 C 97.299 267.244,97.229 267.607,97.233 268.393 M360.071 272.036 C 359.848 272.762,359.725 273.416,359.797 273.488 C 359.870 273.560,360.122 273.035,360.357 272.321 C 360.593 271.608,360.716 270.954,360.631 270.869 C 360.546 270.784,360.294 271.309,360.071 272.036 M98.218 273.441 C 98.214 273.897,101.023 278.214,101.323 278.214 C 101.429 278.214,101.255 277.853,100.936 277.411 C 100.616 276.969,99.875 275.804,99.288 274.821 C 98.701 273.839,98.219 273.218,98.218 273.441 M103.201 279.617 C 103.881 280.221,104.591 280.714,104.778 280.714 C 104.966 280.714,105.052 280.668,104.970 280.611 C 104.888 280.554,104.179 280.060,103.393 279.513 L 101.964 278.520 103.201 279.617 M107.321 281.786 C 107.714 281.955,108.277 282.093,108.571 282.093 C 108.909 282.093,108.843 281.979,108.393 281.786 C 108.000 281.617,107.438 281.479,107.143 281.479 C 106.805 281.479,106.871 281.592,107.321 281.786 M349.286 281.786 C 348.568 282.016,348.533 282.074,349.107 282.082 C 349.500 282.088,350.143 281.955,350.536 281.786 C 351.446 281.395,350.507 281.395,349.286 281.786 M339.146 282.437 C 339.046 282.599,339.691 283.085,340.579 283.517 C 341.468 283.949,342.106 284.158,341.998 283.983 C 341.890 283.808,341.275 283.443,340.633 283.172 C 339.527 282.705,339.694 282.668,343.750 282.483 L 348.036 282.287 343.682 282.215 C 341.287 282.175,339.246 282.275,339.146 282.437 M116.696 283.239 C 115.960 283.627,115.357 284.025,115.357 284.123 C 115.357 284.282,118.178 282.964,118.542 282.635 C 118.953 282.263,117.880 282.614,116.696 283.239 M134.315 282.635 C 134.397 282.709,135.188 283.118,136.071 283.544 C 136.955 283.969,137.357 284.075,136.964 283.778 C 136.571 283.481,136.056 283.072,135.819 282.869 C 135.432 282.539,133.954 282.308,134.315 282.635 M323.214 282.857 C 323.214 283.305,323.593 283.305,324.286 282.857 C 324.719 282.577,324.668 282.510,324.018 282.505 C 323.576 282.502,323.214 282.661,323.214 282.857 M343.571 285.017 C 344.810 285.858,345.516 286.103,344.643 285.389 C 344.152 284.987,343.589 284.658,343.393 284.656 C 343.196 284.655,343.277 284.817,343.571 285.017 M141.071 286.182 C 141.071 286.266,141.754 286.784,142.589 287.335 C 143.424 287.885,143.919 288.108,143.688 287.829 C 143.245 287.292,141.071 285.925,141.071 286.182 M108.194 288.701 C 106.929 289.754,105.491 291.078,105.000 291.643 C 104.509 292.209,104.991 291.868,106.071 290.887 C 107.152 289.905,108.679 288.586,109.464 287.956 C 110.250 287.325,110.804 286.804,110.694 286.798 C 110.585 286.791,109.460 287.647,108.194 288.701 M145.792 289.653 C 146.514 290.248,148.102 291.815,149.322 293.135 C 150.541 294.455,151.050 294.893,150.451 294.107 C 149.212 292.480,145.199 288.571,144.767 288.571 C 144.609 288.571,145.071 289.058,145.792 289.653 M352.857 291.964 C 354.123 293.241,355.238 294.286,355.337 294.286 C 355.435 294.286,354.480 293.241,353.214 291.964 C 351.949 290.688,350.833 289.643,350.735 289.643 C 350.637 289.643,351.592 290.688,352.857 291.964 M310.162 291.518 L 308.750 293.036 310.268 291.624 C 311.103 290.847,311.786 290.164,311.786 290.106 C 311.786 289.836,311.475 290.106,310.162 291.518 M307.807 294.196 C 306.780 295.437,306.344 296.071,306.521 296.071 C 306.620 296.071,307.130 295.509,307.654 294.821 C 308.627 293.546,308.745 293.064,307.807 294.196 M101.163 296.518 C 100.657 297.156,99.946 298.571,100.131 298.571 C 100.216 298.571,100.618 298.009,101.024 297.321 C 101.761 296.072,101.830 295.676,101.163 296.518 M152.821 298.036 C 153.423 299.201,153.918 299.846,153.915 299.464 C 153.914 299.268,153.584 298.705,153.182 298.214 C 152.697 297.621,152.576 297.561,152.821 298.036 M99.344 299.837 C 98.745 301.150,98.860 301.430,99.507 300.236 C 99.809 299.679,99.989 299.156,99.907 299.074 C 99.826 298.992,99.572 299.336,99.344 299.837 M358.597 299.821 C 358.597 300.018,358.826 300.580,359.107 301.071 C 359.388 301.563,359.618 301.804,359.618 301.607 C 359.618 301.411,359.388 300.848,359.107 300.357 C 358.826 299.866,358.597 299.625,358.597 299.821 M302.233 307.679 C 302.237 308.464,302.310 308.744,302.395 308.299 C 302.481 307.855,302.478 307.212,302.388 306.871 C 302.299 306.529,302.229 306.893,302.233 307.679 M156.192 310.714 C 156.192 312.188,156.255 312.790,156.332 312.054 C 156.409 311.317,156.409 310.112,156.332 309.375 C 156.255 308.638,156.192 309.241,156.192 310.714 M97.226 313.214 C 97.226 313.902,97.299 314.183,97.389 313.839 C 97.479 313.496,97.479 312.933,97.389 312.589 C 97.299 312.246,97.226 312.527,97.226 313.214 M302.233 314.107 C 302.237 314.893,302.310 315.172,302.395 314.728 C 302.481 314.284,302.478 313.641,302.388 313.299 C 302.299 312.958,302.229 313.321,302.233 314.107 M97.918 317.679 C 97.912 318.071,98.045 318.714,98.214 319.107 C 98.605 320.017,98.605 319.078,98.214 317.857 C 97.984 317.139,97.926 317.104,97.918 317.679 M99.123 321.875 C 99.257 322.317,99.513 322.836,99.693 323.028 C 99.872 323.220,99.839 322.858,99.618 322.224 C 99.165 320.927,98.748 320.632,99.123 321.875 M103.486 329.464 C 103.895 330.054,105.163 331.420,106.302 332.500 C 108.276 334.371,108.258 334.337,105.903 331.786 C 102.604 328.209,102.635 328.239,103.486 329.464 M147.488 332.054 L 145.536 334.107 147.589 332.155 C 149.497 330.342,149.806 330.000,149.541 330.000 C 149.486 330.000,148.561 330.924,147.488 332.054 M352.838 331.696 L 351.607 333.036 352.946 331.805 C 354.193 330.659,354.450 330.357,354.177 330.357 C 354.118 330.357,353.515 330.960,352.838 331.696 M311.786 333.313 C 311.786 333.381,312.308 333.819,312.946 334.287 C 313.665 334.813,313.914 334.899,313.601 334.513 C 313.125 333.927,311.786 333.042,311.786 333.313 M350.109 334.133 L 349.107 335.052 350.268 334.245 C 350.906 333.800,351.429 333.387,351.429 333.326 C 351.429 333.044,351.034 333.286,350.109 334.133 M112.857 337.318 C 112.857 337.562,115.044 338.647,115.207 338.483 C 115.285 338.406,114.788 338.075,114.103 337.748 C 113.418 337.422,112.857 337.228,112.857 337.318 M136.964 338.763 C 136.071 339.193,136.041 339.242,136.786 339.060 C 137.798 338.813,138.935 338.233,138.393 338.241 C 138.196 338.244,137.554 338.479,136.964 338.763 M116.071 338.868 C 116.366 339.050,117.009 339.307,117.500 339.438 C 118.121 339.604,118.229 339.576,117.857 339.346 C 117.563 339.164,116.920 338.908,116.429 338.776 C 115.808 338.610,115.699 338.638,116.071 338.868 M325.714 340.345 C 326.599 340.640,329.185 340.834,328.899 340.584 C 328.817 340.512,327.866 340.362,326.786 340.251 C 325.518 340.119,325.138 340.153,325.714 340.345 M122.772 340.610 C 123.216 340.695,123.859 340.692,124.201 340.603 C 124.542 340.513,124.179 340.443,123.393 340.447 C 122.607 340.451,122.328 340.524,122.772 340.610 M128.839 340.609 C 129.281 340.694,130.004 340.694,130.446 340.609 C 130.888 340.524,130.527 340.454,129.643 340.454 C 128.759 340.454,128.397 340.524,128.839 340.609 M334.018 340.603 C 334.362 340.693,334.924 340.693,335.268 340.603 C 335.612 340.513,335.330 340.440,334.643 340.440 C 333.955 340.440,333.674 340.513,334.018 340.603 " stroke="#ffffff" fill="#ffffff" fill-rule="evenodd"></path><path id="path3" d="M30.094 48.471 C 30.637 48.553,31.441 48.550,31.880 48.466 C 32.319 48.381,31.875 48.314,30.893 48.316 C 29.911 48.319,29.551 48.388,30.094 48.471 M140.831 236.607 C 140.833 237.982,140.898 238.501,140.975 237.760 C 141.052 237.019,141.051 235.894,140.972 235.260 C 140.893 234.626,140.830 235.232,140.831 236.607 M112.054 282.395 C 112.496 282.480,113.219 282.480,113.661 282.395 C 114.103 282.310,113.741 282.240,112.857 282.240 C 111.973 282.240,111.612 282.310,112.054 282.395 M302.254 310.893 C 302.256 312.071,302.322 312.511,302.402 311.869 C 302.481 311.227,302.480 310.262,302.398 309.726 C 302.317 309.189,302.252 309.714,302.254 310.893 M97.240 310.714 C 97.240 311.598,97.310 311.960,97.395 311.518 C 97.480 311.076,97.480 310.353,97.395 309.911 C 97.310 309.469,97.240 309.830,97.240 310.714 M311.071 332.321 C 311.738 333.009,312.363 333.571,312.462 333.571 C 312.560 333.571,312.095 333.009,311.429 332.321 C 310.762 331.634,310.137 331.071,310.038 331.071 C 309.940 331.071,310.405 331.634,311.071 332.321 M125.446 340.613 C 125.987 340.695,126.871 340.695,127.411 340.613 C 127.951 340.531,127.509 340.464,126.429 340.464 C 125.348 340.464,124.906 340.531,125.446 340.613 M329.903 340.615 C 330.537 340.694,331.662 340.695,332.403 340.618 C 333.144 340.540,332.625 340.476,331.250 340.474 C 329.875 340.473,329.269 340.536,329.903 340.615 " stroke="#ffffff" fill="#ffffff" fill-rule="evenodd"></path><path id="path4" d="M28.304 19.553 C 31.790 19.611,37.496 19.611,40.982 19.553 C 44.469 19.495,41.616 19.447,34.643 19.447 C 27.670 19.447,24.817 19.495,28.304 19.553 M72.589 19.552 C 74.897 19.615,78.674 19.615,80.982 19.552 C 83.290 19.490,81.402 19.439,76.786 19.439 C 72.170 19.439,70.281 19.490,72.589 19.552 M92.666 23.214 C 93.628 24.295,94.488 25.259,94.578 25.357 C 94.667 25.455,94.570 25.214,94.362 24.821 C 94.155 24.429,93.295 23.464,92.451 22.679 C 90.938 21.270,90.942 21.278,92.666 23.214 M13.199 42.946 C 14.075 43.879,14.838 44.643,14.896 44.643 C 15.164 44.643,14.880 44.322,13.304 42.842 L 11.607 41.250 13.199 42.946 M23.839 48.109 C 24.281 48.194,25.004 48.194,25.446 48.109 C 25.888 48.024,25.527 47.954,24.643 47.954 C 23.759 47.954,23.397 48.024,23.839 48.109 M39.107 48.473 C 56.542 48.721,70.988 48.725,70.838 48.482 C 70.747 48.335,62.043 48.251,51.497 48.295 C 40.950 48.340,35.375 48.420,39.107 48.473 M385.870 190.089 L 384.821 191.250 385.982 190.201 C 387.064 189.223,387.307 188.929,387.031 188.929 C 386.970 188.929,386.447 189.451,385.870 190.089 M369.375 195.246 C 369.719 195.336,370.281 195.336,370.625 195.246 C 370.969 195.156,370.688 195.083,370.000 195.083 C 369.313 195.083,369.031 195.156,369.375 195.246 M357.589 196.675 C 357.933 196.765,358.496 196.765,358.839 196.675 C 359.183 196.585,358.902 196.511,358.214 196.511 C 357.527 196.511,357.246 196.585,357.589 196.675 M351.161 197.389 C 351.504 197.479,352.067 197.479,352.411 197.389 C 352.754 197.299,352.473 197.226,351.786 197.226 C 351.098 197.226,350.817 197.299,351.161 197.389 M347.946 197.746 C 348.290 197.836,348.853 197.836,349.196 197.746 C 349.540 197.656,349.259 197.583,348.571 197.583 C 347.884 197.583,347.603 197.656,347.946 197.746 M332.946 199.532 C 333.290 199.622,333.853 199.622,334.196 199.532 C 334.540 199.442,334.259 199.369,333.571 199.369 C 332.884 199.369,332.603 199.442,332.946 199.532 M320.629 200.967 C 321.073 201.052,321.716 201.049,322.058 200.960 C 322.399 200.870,322.036 200.800,321.250 200.804 C 320.464 200.808,320.185 200.881,320.629 200.967 M311.161 202.032 C 311.504 202.122,312.067 202.122,312.411 202.032 C 312.754 201.942,312.473 201.869,311.786 201.869 C 311.098 201.869,310.817 201.942,311.161 202.032 M308.304 202.389 C 308.647 202.479,309.210 202.479,309.554 202.389 C 309.897 202.299,309.616 202.226,308.929 202.226 C 308.241 202.226,307.960 202.299,308.304 202.389 M283.661 205.246 C 284.004 205.336,284.567 205.336,284.911 205.246 C 285.254 205.156,284.973 205.083,284.286 205.083 C 283.598 205.083,283.317 205.156,283.661 205.246 M280.804 205.603 C 281.147 205.693,281.710 205.693,282.054 205.603 C 282.397 205.513,282.116 205.440,281.429 205.440 C 280.741 205.440,280.460 205.513,280.804 205.603 M277.589 205.960 C 277.933 206.050,278.496 206.050,278.839 205.960 C 279.183 205.871,278.902 205.797,278.214 205.797 C 277.527 205.797,277.246 205.871,277.589 205.960 M274.375 206.318 C 274.719 206.407,275.281 206.407,275.625 206.318 C 275.969 206.228,275.688 206.154,275.000 206.154 C 274.313 206.154,274.031 206.228,274.375 206.318 M271.518 206.675 C 271.862 206.765,272.424 206.765,272.768 206.675 C 273.112 206.585,272.830 206.511,272.143 206.511 C 271.455 206.511,271.174 206.585,271.518 206.675 M259.018 208.103 C 259.362 208.193,259.924 208.193,260.268 208.103 C 260.612 208.013,260.330 207.940,259.643 207.940 C 258.955 207.940,258.674 208.013,259.018 208.103 M244.375 209.889 C 244.719 209.979,245.281 209.979,245.625 209.889 C 245.969 209.799,245.688 209.726,245.000 209.726 C 244.313 209.726,244.031 209.799,244.375 209.889 M225.446 212.032 C 225.790 212.122,226.353 212.122,226.696 212.032 C 227.040 211.942,226.759 211.869,226.071 211.869 C 225.384 211.869,225.103 211.942,225.446 212.032 M222.589 212.389 C 222.933 212.479,223.496 212.479,223.839 212.389 C 224.183 212.299,223.902 212.226,223.214 212.226 C 222.527 212.226,222.246 212.299,222.589 212.389 M210.446 213.818 C 210.790 213.907,211.353 213.907,211.696 213.818 C 212.040 213.728,211.759 213.654,211.071 213.654 C 210.384 213.654,210.103 213.728,210.446 213.818 M207.589 214.175 C 207.933 214.265,208.496 214.265,208.839 214.175 C 209.183 214.085,208.902 214.011,208.214 214.011 C 207.527 214.011,207.246 214.085,207.589 214.175 M201.161 214.889 C 201.504 214.979,202.067 214.979,202.411 214.889 C 202.754 214.799,202.473 214.726,201.786 214.726 C 201.098 214.726,200.817 214.799,201.161 214.889 M198.304 215.246 C 198.647 215.336,199.210 215.336,199.554 215.246 C 199.897 215.156,199.616 215.083,198.929 215.083 C 198.241 215.083,197.960 215.156,198.304 215.246 M189.018 216.318 C 189.362 216.407,189.924 216.407,190.268 216.318 C 190.612 216.228,190.330 216.154,189.643 216.154 C 188.955 216.154,188.674 216.228,189.018 216.318 M186.161 216.675 C 186.504 216.765,187.067 216.765,187.411 216.675 C 187.754 216.585,187.473 216.511,186.786 216.511 C 186.098 216.511,185.817 216.585,186.161 216.675 M174.018 218.103 C 174.362 218.193,174.924 218.193,175.268 218.103 C 175.612 218.013,175.330 217.940,174.643 217.940 C 173.955 217.940,173.674 218.013,174.018 218.103 M161.875 219.532 C 162.219 219.622,162.781 219.622,163.125 219.532 C 163.469 219.442,163.188 219.369,162.500 219.369 C 161.813 219.369,161.531 219.442,161.875 219.532 M152.232 220.603 C 152.576 220.693,153.138 220.693,153.482 220.603 C 153.826 220.513,153.545 220.440,152.857 220.440 C 152.170 220.440,151.888 220.513,152.232 220.603 M149.375 220.960 C 149.719 221.050,150.281 221.050,150.625 220.960 C 150.969 220.871,150.688 220.797,150.000 220.797 C 149.313 220.797,149.031 220.871,149.375 220.960 M110.474 234.464 C 110.476 235.839,110.540 236.358,110.618 235.617 C 110.695 234.876,110.694 233.751,110.615 233.117 C 110.536 232.483,110.473 233.089,110.474 234.464 M104.891 249.112 C 104.565 249.797,104.371 250.357,104.461 250.357 C 104.705 250.357,105.789 248.170,105.626 248.007 C 105.549 247.930,105.218 248.427,104.891 249.112 M103.106 252.683 C 102.779 253.368,102.585 253.929,102.675 253.929 C 102.920 253.929,104.004 251.742,103.840 251.578 C 103.763 251.501,103.432 251.998,103.106 252.683 M135.661 252.947 C 135.809 253.095,183.252 253.175,241.090 253.126 L 346.250 253.036 240.821 252.857 C 182.836 252.759,135.514 252.799,135.661 252.947 M356.057 257.232 C 356.932 258.165,357.696 258.929,357.753 258.929 C 358.021 258.929,357.738 258.608,356.161 257.128 L 354.464 255.536 356.057 257.232 M100.415 258.408 C 99.817 259.721,99.931 260.002,100.578 258.808 C 100.880 258.250,101.060 257.727,100.979 257.645 C 100.897 257.564,100.643 257.907,100.415 258.408 M97.614 268.214 C 97.614 269.491,97.679 270.013,97.758 269.375 C 97.838 268.737,97.838 267.692,97.758 267.054 C 97.679 266.415,97.614 266.938,97.614 268.214 M338.214 282.122 C 338.214 282.307,338.375 282.557,338.571 282.679 C 338.768 282.800,338.929 282.734,338.929 282.532 C 338.929 282.305,340.671 282.121,343.482 282.053 L 348.036 281.941 343.125 281.863 C 340.240 281.818,338.214 281.924,338.214 282.122 M114.821 282.356 C 116.465 282.623,119.206 282.659,119.052 282.411 C 118.961 282.263,117.811 282.165,116.497 282.191 C 115.182 282.218,114.429 282.292,114.821 282.356 M134.122 282.475 C 134.009 282.658,134.105 282.924,134.335 283.066 C 134.596 283.228,134.658 283.170,134.498 282.912 C 134.306 282.601,157.593 282.503,229.532 282.513 C 312.316 282.524,324.704 282.592,323.929 283.036 C 322.906 283.620,323.257 283.765,324.319 283.196 C 324.705 282.990,324.926 282.669,324.810 282.482 C 324.529 282.026,134.404 282.019,134.122 282.475 M116.786 283.571 C 116.098 283.948,115.696 284.256,115.893 284.256 C 116.089 284.256,116.813 283.948,117.500 283.571 C 118.188 283.195,118.589 282.887,118.393 282.887 C 118.196 282.887,117.473 283.195,116.786 283.571 M319.911 284.847 C 318.576 285.571,318.657 285.873,320.000 285.179 C 320.589 284.874,321.071 284.548,321.071 284.455 C 321.071 284.225,321.033 284.238,319.911 284.847 M105.695 291.339 L 104.464 292.679 105.804 291.448 C 107.050 290.302,107.307 290.000,107.034 290.000 C 106.975 290.000,106.372 290.603,105.695 291.339 M147.842 291.875 C 149.322 293.452,149.643 293.735,149.643 293.467 C 149.643 293.410,148.879 292.647,147.946 291.771 L 146.250 290.179 147.842 291.875 M352.679 292.143 C 353.646 293.125,354.518 293.929,354.616 293.929 C 354.714 293.929,354.003 293.125,353.036 292.143 C 352.068 291.161,351.196 290.357,351.098 290.357 C 351.000 290.357,351.711 291.161,352.679 292.143 M97.583 307.857 C 97.583 308.545,97.656 308.826,97.746 308.482 C 97.836 308.138,97.836 307.576,97.746 307.232 C 97.656 306.888,97.583 307.170,97.583 307.857 M155.834 310.714 C 155.834 312.188,155.897 312.790,155.974 312.054 C 156.052 311.317,156.052 310.112,155.974 309.375 C 155.897 308.638,155.834 309.241,155.834 310.714 M360.821 310.714 C 360.821 311.795,360.888 312.237,360.970 311.696 C 361.052 311.156,361.052 310.272,360.970 309.732 C 360.888 309.192,360.821 309.634,360.821 310.714 M97.590 313.750 C 97.594 314.536,97.667 314.815,97.753 314.371 C 97.838 313.927,97.835 313.284,97.745 312.942 C 97.656 312.601,97.586 312.964,97.590 313.750 M100.893 325.000 C 101.198 325.589,101.527 326.071,101.625 326.071 C 101.724 326.071,101.555 325.589,101.250 325.000 C 100.945 324.411,100.616 323.929,100.517 323.929 C 100.419 323.929,100.588 324.411,100.893 325.000 M106.071 331.964 C 107.138 333.045,108.092 333.929,108.190 333.929 C 108.288 333.929,107.496 333.045,106.429 331.964 C 105.362 330.884,104.408 330.000,104.310 330.000 C 104.212 330.000,105.004 330.884,106.071 331.964 M147.305 331.875 L 145.893 333.393 147.411 331.981 C 148.822 330.668,149.093 330.357,148.822 330.357 C 148.764 330.357,148.081 331.040,147.305 331.875 M113.929 337.679 C 114.420 337.959,114.982 338.189,115.179 338.189 C 115.375 338.189,115.134 337.959,114.643 337.679 C 114.152 337.398,113.589 337.168,113.393 337.168 C 113.196 337.168,113.438 337.398,113.929 337.679 M343.571 337.679 C 343.080 337.959,342.839 338.189,343.036 338.189 C 343.232 338.189,343.795 337.959,344.286 337.679 C 344.777 337.398,345.018 337.168,344.821 337.168 C 344.625 337.168,344.063 337.398,343.571 337.679 " stroke="#ffffff" fill="#ffffff" fill-rule="evenodd"></path></g></svg>