<?xml version="1.0" standalone="no"?>
<!DOCTYPE svg PUBLIC "-//W3C//DTD SVG 20010904//EN"
 "http://www.w3.org/TR/2001/REC-SVG-20010904/DTD/svg10.dtd">
<svg version="1.0" xmlns="http://www.w3.org/2000/svg"
 width="980.000000pt" height="984.000000pt" viewBox="0 0 980.000000 984.000000"
 preserveAspectRatio="xMidYMid meet">

<g transform="translate(0.000000,984.000000) scale(0.100000,-0.100000)"
fill="grey" stroke="none">
<path d="M4020 9814 c-42 -18 -86 -58 -108 -99 -15 -26 -17 -75 -20 -360 -2
-181 -1 -349 3 -371 7 -52 46 -113 93 -144 l36 -25 2175 -5 2176 -5 59 -23
c88 -33 140 -66 200 -128 57 -59 108 -150 125 -224 7 -31 11 -1155 11 -3510 0
-3712 3 -3502 -49 -3610 -47 -100 -157 -201 -261 -241 -30 -11 -91 -25 -135
-30 -46 -5 -963 -9 -2184 -9 l-2104 0 -43 -25 c-27 -16 -54 -44 -71 -73 l-28
-47 -3 -330 c-3 -225 0 -347 8 -383 14 -63 57 -117 115 -143 38 -18 132 -19
2200 -19 1505 0 2187 3 2250 11 657 80 1188 582 1312 1241 17 88 18 300 18
3668 l0 3575 -22 101 c-31 139 -66 242 -123 361 -204 429 -579 723 -1065 836
-90 21 -94 21 -2310 24 -1971 2 -2224 1 -2255 -13z"/>
<path d="M3825 7446 c-36 -16 -81 -59 -103 -101 -15 -27 -17 -92 -20 -602 l-3
-573 -1767 0 c-1699 0 -1769 -1 -1807 -19 -22 -10 -52 -31 -67 -47 -61 -66
-58 -1 -58 -1186 0 -1026 1 -1085 19 -1123 23 -51 79 -101 128 -114 26 -8 600
-11 1795 -11 l1757 0 3 -572 3 -573 24 -42 c37 -64 90 -96 165 -101 73 -5 72
-5 311 133 88 51 993 573 2010 1160 1018 587 1865 1081 1884 1099 43 40 61 83
61 146 0 63 -18 106 -61 146 -19 18 -866 512 -1884 1099 -1017 587 -1922 1109
-2010 1160 -88 51 -179 102 -202 114 -49 24 -131 28 -178 7z"/>
</g>
</svg>
