<?xml version="1.0" standalone="no"?>
<!DOCTYPE svg PUBLIC "-//W3C//DTD SVG 20010904//EN"
 "http://www.w3.org/TR/2001/REC-SVG-20010904/DTD/svg10.dtd">
<svg version="1.0" xmlns="http://www.w3.org/2000/svg"
 width="1152.000000pt" height="1024.000000pt" viewBox="0 0 1152.000000 1024.000000"
 preserveAspectRatio="xMidYMid meet">

<g transform="translate(0.000000,1024.000000) scale(0.100000,-0.100000)"
fill="#000000" stroke="none">
<path d="M5588 10224 c-145 -26 -294 -92 -408 -179 -67 -52 -165 -154 -207
-215 -56 -83 -4846 -8394 -4884 -8475 -64 -136 -84 -228 -83 -390 0 -111 4
-159 22 -230 27 -109 103 -267 170 -356 149 -195 387 -336 625 -368 110 -15
9764 -15 9874 0 308 41 584 244 723 533 72 150 95 250 94 421 0 162 -20 256
-83 390 -48 102 -4838 8409 -4896 8491 -65 91 -199 212 -296 267 -193 109
-434 150 -651 111z m928 -3539 c30 -19 60 -49 79 -79 26 -43 30 -61 33 -130 1
-45 -31 -688 -72 -1429 -73 -1336 -74 -1348 -98 -1395 -27 -53 -91 -106 -146
-122 -50 -14 -1054 -14 -1104 0 -55 16 -119 69 -146 122 -24 47 -25 58 -98
1385 -40 736 -73 1374 -74 1418 0 97 28 167 84 210 73 56 54 55 802 52 l691
-2 49 -30z m-511 -3560 c181 -53 331 -147 448 -283 317 -365 298 -909 -44
-1251 -132 -132 -284 -213 -474 -252 -294 -61 -612 38 -830 258 -304 307 -350
792 -109 1155 115 173 296 306 502 368 110 33 158 39 292 35 98 -3 145 -9 215
-30z"/>
</g>
</svg>
